<svg viewBox="0 0 12 12" xmlns="http://www.w3.org/2000/svg">
    <path d="M11.9806 4.55244C11.936 4.41911 11.8205 4.32197 11.6815 4.3006L7.99249 3.73691L6.3396 0.215649C6.27772 0.0840092 6.14534 0 6.00002 0C5.8547 0 5.72251 0.0840092 5.66044 0.215649L4.00755 3.73691L0.318505 4.30078C0.179561 4.32197 0.0642435 4.4193 0.0194289 4.55262C-0.0251982 4.68576 0.0083659 4.83278 0.106621 4.93348L2.78687 7.68196L2.15347 11.5644C2.13022 11.7062 2.19003 11.8489 2.3076 11.9314C2.3721 11.9769 2.44767 12 2.52342 12C2.58567 12 2.6483 11.9842 2.70493 11.9531L5.99983 10.1306L9.29474 11.9531C9.35137 11.9842 9.41399 12 9.47625 12C9.552 12 9.62775 11.9769 9.69207 11.9314C9.80964 11.8489 9.86945 11.7062 9.8462 11.5644L9.2128 7.68196L11.893 4.93348C11.9915 4.83259 12.0252 4.68558 11.9806 4.55244Z" />
</svg>
