<svg viewBox="0 0 20 17" xmlns="http://www.w3.org/2000/svg">
	<path d="M2.97266 10.8906C4.35467 10.8908 5.51219 11.8353 5.84473 13.1133H18.5273C18.9416 13.1133 19.2773 13.4491 19.2773 13.8633C19.2771 14.2773 18.9414 14.6133 18.5273 14.6133H5.84473C5.51189 15.8908 4.35436 16.8348 2.97266 16.835C1.3313 16.835 0.000246336 15.5046 0 13.8633C0 12.2218 1.33115 10.8906 2.97266 10.8906ZM2.97266 12.3906C2.15956 12.3906 1.5 13.0502 1.5 13.8633C1.50025 14.6761 2.15971 15.335 2.97266 15.335C3.7854 15.3347 4.44409 14.676 4.44434 13.8633C4.44434 13.0503 3.78555 12.3909 2.97266 12.3906ZM16.3057 5.44531C17.9471 5.44535 19.2773 6.77644 19.2773 8.41797C19.2771 10.0593 17.947 11.3896 16.3057 11.3896C14.9236 11.3896 13.7654 10.4457 13.4326 9.16797H0.75C0.335932 9.16797 0.000235698 8.83198 0 8.41797C0 8.00376 0.335786 7.66797 0.75 7.66797H13.4326C13.7652 6.38979 14.9234 5.44531 16.3057 5.44531ZM16.3057 6.94531C15.4925 6.94531 14.833 7.60486 14.833 8.41797C14.8332 9.23087 15.4926 9.88965 16.3057 9.88965C17.1186 9.88961 17.7771 9.23087 17.7773 8.41797C17.7773 7.60486 17.1187 6.94535 16.3057 6.94531ZM9.63867 0C11.0209 0 12.1792 0.944527 12.5117 2.22266H18.5273C18.9416 2.22266 19.2773 2.55844 19.2773 2.97266C19.2771 3.38667 18.9414 3.72266 18.5273 3.72266H12.5117C12.1789 5.00037 11.0206 5.94434 9.63867 5.94434C8.25676 5.94424 7.0984 5.00036 6.76562 3.72266H0.75C0.335932 3.72266 0.000235698 3.38667 0 2.97266C0 2.55844 0.335786 2.22266 0.75 2.22266H6.76562C7.09811 0.944541 8.25647 9.93795e-05 9.63867 0ZM9.63867 1.5C8.82566 1.50012 8.16699 2.15964 8.16699 2.97266C8.16723 3.78548 8.82581 4.44422 9.63867 4.44434C10.4516 4.44434 11.1111 3.78555 11.1113 2.97266C11.1113 2.15956 10.4518 1.5 9.63867 1.5Z" />
</svg>
