<svg viewBox="0 0 15 16" xmlns="http://www.w3.org/2000/svg">
    <path d="M0.34569 16C0.0686065 15.8717 -0.00514349 15.6513 0.000273179 15.355C0.0556898 12.4838 2.24111 9.93542 5.06152 9.465C5.41569 9.40584 5.77194 9.37375 6.13111 9.37459C6.75986 9.37625 7.38902 9.35709 8.01736 9.37917C10.4349 9.46375 12.2019 10.6117 13.3557 12.72C13.8049 13.5408 13.999 14.4367 14.039 15.3704C14.0515 15.6633 13.9632 15.8746 13.6944 16H0.34569ZM7.01319 15.0625H10.0999C11.0403 15.0625 11.9811 15.0592 12.9215 15.0658C13.0619 15.0667 13.0907 15.0221 13.0661 14.8979C13.0324 14.7296 13.0103 14.5592 12.9761 14.3913C12.5082 12.0979 10.4032 10.3467 8.07111 10.3154C7.39569 10.3063 6.71986 10.3138 6.04444 10.3129C5.71069 10.3129 5.37986 10.3483 5.05444 10.4183C2.87902 10.885 1.24652 12.6763 0.974023 14.8842C0.95694 15.0242 0.985273 15.0667 1.13569 15.0663C3.09486 15.0608 5.05402 15.0625 7.01319 15.0625Z" />
    <path d="M7.36287 0C7.68329 0.0595833 8.0062 0.102917 8.3187 0.205417C10.147 0.80625 11.3712 2.6075 11.2233 4.48625C11.0662 6.48208 9.63162 8.065 7.69412 8.38042C5.30204 8.77 3.08037 7.06125 2.83329 4.64167C2.59829 2.34542 4.27245 0.27125 6.55662 0.0270833C6.59704 0.0229167 6.63662 0.00916667 6.67662 0C6.90537 0 7.13412 0 7.36287 0ZM7.0137 0.9375C5.21162 0.94 3.74454 2.41375 3.74537 4.22083C3.7462 6.02667 5.21579 7.49917 7.01829 7.5C8.82745 7.50083 10.2991 6.02208 10.295 4.20875C10.2904 2.40333 8.81787 0.935417 7.01412 0.937917L7.0137 0.9375Z" />
</svg>
