<svg xmlns="http://www.w3.org/2000/svg" xmlns:xlink="http://www.w3.org/1999/xlink"><symbol viewBox="0 0 13 11" id="symbol-arrow" xmlns="http://www.w3.org/2000/svg"><path d="M4.969.142a.5.5 0 0 1 .698.716l-3.938 3.84h10.334a.5.5 0 0 1 0 1H1.729l3.938 3.84a.5.5 0 0 1-.698.715L.15 5.556a.501.501 0 0 1 0-.716L4.97.142Z"/></symbol><symbol viewBox="0 0 14 8" id="symbol-caret" xmlns="http://www.w3.org/2000/svg"><path d="M12.22.22a.75.75 0 1 1 1.06 1.06L6.75 7.81.22 1.28A.75.75 0 1 1 1.28.22l5.47 5.47L12.22.22Z"/></symbol><symbol viewBox="0 0 15 15" id="symbol-cart" xmlns="http://www.w3.org/2000/svg"><path d="M1.032 0a1.93 1.93 0 0 1 1.871 1.457h9.394A1.932 1.932 0 0 1 14.13 4l-1.215 3.644a1.932 1.932 0 0 1-1.833 1.32H3.988l.057.393c.07.484.484.844.973.844h6.386a1.931 1.931 0 1 1-1.662.95H7.236a1.932 1.932 0 1 1-3.154-.244 1.93 1.93 0 0 1-.978-1.416l-.132-.934-.938-6.558-.03-.206a.983.983 0 0 0-.972-.844H.475a.475.475 0 1 1 0-.949h.557Zm4.543 11.15a.982.982 0 1 0 0 1.965.982.982 0 0 0 0-1.965Zm5.83 0a.982.982 0 1 0-.001 1.965.982.982 0 0 0 0-1.965ZM3.852 8.015h7.229c.423 0 .799-.271.933-.672L13.228 3.7h.002a.983.983 0 0 0-.933-1.294H3.052l.8 5.609Z"/></symbol><symbol viewBox="0 0 10 20" id="symbol-facebook" xmlns="http://www.w3.org/2000/svg"><path d="M6.496 20v-9.108h2.962l.44-3.566H6.496V5.054c0-1.029.277-1.733 1.7-1.733H10V.14a23.068 23.068 0 0 0-2.642-.14C4.74 0 2.942 1.657 2.942 4.701v2.617H0v3.566h2.949V20h3.547Z"/></symbol><symbol viewBox="0 0 20 17" id="symbol-filter" xmlns="http://www.w3.org/2000/svg"><path d="M2.973 10.89a2.97 2.97 0 0 1 2.872 2.223h12.682a.75.75 0 1 1 0 1.5H5.845A2.97 2.97 0 0 1 0 13.863a2.973 2.973 0 0 1 2.973-2.972Zm0 1.5a1.473 1.473 0 1 0 0 2.947 1.473 1.473 0 0 0 0-2.946Zm13.333-6.945a2.972 2.972 0 0 1 0 5.945 2.97 2.97 0 0 1-2.873-2.222H.75a.75.75 0 0 1 0-1.5h12.683a2.97 2.97 0 0 1 2.873-2.223Zm0 1.5a1.473 1.473 0 1 0 0 2.946 1.473 1.473 0 0 0 0-2.946ZM9.639 0a2.97 2.97 0 0 1 2.873 2.223h6.015a.75.75 0 1 1 0 1.5h-6.015a2.97 2.97 0 0 1-2.873 2.221 2.97 2.97 0 0 1-2.873-2.221H.75a.75.75 0 0 1 0-1.5h6.016A2.97 2.97 0 0 1 9.639 0Zm0 1.5a1.472 1.472 0 1 0 0 2.945 1.472 1.472 0 0 0 0-2.945Z"/></symbol><symbol viewBox="0 0 15 13" id="symbol-heart" xmlns="http://www.w3.org/2000/svg"><path d="M9.943 0a4.264 4.264 0 0 1 4.262 4.262c0 2.544-1.776 4.68-3.552 6.178a19.457 19.457 0 0 1-3.246 2.202l-.05.026-.034.018a.475.475 0 0 1-.443 0l-.083-.044a19.455 19.455 0 0 1-3.245-2.202C1.832 8.988.11 6.94.005 4.499L0 4.262l.01-.308a4.249 4.249 0 0 1 4.91-3.9 4.25 4.25 0 0 1 1.947.852l.236.2.148-.13A4.238 4.238 0 0 1 9.941 0h.002Zm.001.95a3.29 3.29 0 0 0-2.203.857.95.95 0 0 1-1.277 0 3.3 3.3 0 0 0-3.558-.574A3.297 3.297 0 0 0 .95 4.258v.004c0 2.105 1.488 3.996 3.214 5.453a18.472 18.472 0 0 0 2.939 2.01 18.49 18.49 0 0 0 2.94-2.01c1.726-1.457 3.214-3.348 3.214-5.453A3.313 3.313 0 0 0 9.944.949Z"/></symbol><symbol viewBox="0 0 19 20" id="symbol-instagram" xmlns="http://www.w3.org/2000/svg"><path d="M9.495 4.844c2.664 0 4.864 2.321 4.864 5.134 0 2.857-2.2 5.134-4.864 5.134-2.707 0-4.864-2.277-4.864-5.134 0-2.813 2.157-5.134 4.864-5.134Zm0 8.482c1.734 0 3.13-1.473 3.13-3.348 0-1.83-1.396-3.304-3.13-3.304-1.776 0-3.172 1.473-3.172 3.304 0 1.875 1.438 3.348 3.172 3.348Zm6.175-8.66c0 .669-.508 1.205-1.142 1.205-.635 0-1.142-.536-1.142-1.206 0-.67.507-1.205 1.142-1.205.634 0 1.142.536 1.142 1.205Zm3.214 1.205c.084 1.651.084 6.607 0 8.258-.085 1.608-.423 2.992-1.523 4.197-1.1 1.16-2.453 1.518-3.975 1.607-1.565.09-6.26.09-7.824 0-1.523-.09-2.834-.446-3.976-1.607-1.1-1.206-1.438-2.59-1.523-4.197-.084-1.651-.084-6.607 0-8.258.085-1.608.423-3.036 1.523-4.197C2.728.514 4.039.156 5.562.067c1.564-.09 6.259-.09 7.824 0 1.522.09 2.876.446 3.975 1.607 1.1 1.16 1.438 2.59 1.523 4.197Zm-2.03 10c.507-1.295.38-4.42.38-5.893 0-1.429.127-4.554-.38-5.893-.338-.848-.973-1.563-1.776-1.875-1.27-.536-4.23-.402-5.583-.402-1.396 0-4.356-.134-5.583.402a3.353 3.353 0 0 0-1.818 1.875c-.508 1.34-.381 4.464-.381 5.893 0 1.473-.127 4.598.38 5.893.339.892.973 1.562 1.82 1.92 1.226.535 4.186.401 5.582.401 1.353 0 4.314.134 5.583-.402.803-.357 1.48-1.027 1.776-1.92Z"/></symbol><symbol viewBox="0 0 16 16" id="symbol-magnifier" xmlns="http://www.w3.org/2000/svg"><path fill-rule="evenodd" clip-rule="evenodd" d="M6.732 12.229c-3.146 0-5.696-2.506-5.696-5.602 0-3.096 2.55-5.607 5.696-5.607s5.697 2.511 5.697 5.607-2.55 5.602-5.697 5.602Zm9.117 2.9-4.13-4.066a6.527 6.527 0 0 0 1.745-4.436C13.464 2.966 10.45 0 6.732 0 3.014 0 0 2.966 0 6.627c0 3.656 3.014 6.622 6.732 6.622 1.607 0 3.08-.555 4.237-1.48l4.148 4.081c.202.2.53.2.732 0a.503.503 0 0 0 0-.72Z"/></symbol><symbol viewBox="0 0 41 30" id="symbol-quotation-mark" xmlns="http://www.w3.org/2000/svg"><path d="M40.632 29.997H22.777l-.003-14.167c.294-4.848.703-10.944 5.216-13.83C30.496.395 33.597.133 36.507 0v7.935c-.862.067-1.827.119-2.64.417-2.9 1.066-2.974 5.322-3.075 7.918h9.84v13.727ZM0 29.998V15.83C.296 11.01.71 5.077 5.087 2.113 7.586.42 10.79.15 13.73.003v7.935c-2.164.09-3.823.49-4.721 2.62-.626 1.487-.886 3.931-.88 5.55 0 .067.028.162.087.162h9.642V30H0v-.002Z"/></symbol><symbol viewBox="0 0 12 12" id="symbol-star" xmlns="http://www.w3.org/2000/svg"><path d="M11.98 4.552a.375.375 0 0 0-.299-.251l-3.689-.564L6.34.216a.375.375 0 0 0-.68 0l-1.652 3.52-3.69.565a.376.376 0 0 0-.211.632l2.68 2.749-.634 3.882a.374.374 0 0 0 .552.39L6 10.13l3.295 1.822a.378.378 0 0 0 .397-.022.374.374 0 0 0 .154-.367l-.633-3.882 2.68-2.749a.375.375 0 0 0 .088-.38Z"/></symbol><symbol viewBox="0 0 22 22" id="symbol-times" xmlns="http://www.w3.org/2000/svg"><rect y="20.506" width="29" height="1" rx=".5" transform="rotate(-45 0 20.506)"/><rect x="1" width="29" height="1" rx=".5" transform="rotate(45 1 0)"/></symbol><symbol viewBox="0 0 15 16" id="symbol-user" xmlns="http://www.w3.org/2000/svg"><path d="M.346 16c-.277-.128-.351-.349-.346-.645.056-2.871 2.241-5.42 5.062-5.89a6.39 6.39 0 0 1 1.07-.09c.628.001 1.257-.018 1.885.004 2.418.085 4.185 1.233 5.339 3.341.449.82.643 1.717.683 2.65.013.293-.076.505-.345.63H.346Zm6.667-.938H10.1c.94 0 1.881-.003 2.822.004.14 0 .169-.044.144-.168-.034-.168-.056-.339-.09-.507-.468-2.293-2.573-4.044-4.905-4.076-.675-.009-1.351-.001-2.027-.002a4.7 4.7 0 0 0-.99.105 5.213 5.213 0 0 0-4.08 4.466c-.017.14.011.183.162.182 1.959-.005 3.918-.004 5.877-.004ZM7.363 0c.32.06.643.103.956.205 1.828.601 3.052 2.402 2.904 4.281-.157 1.996-1.591 3.579-3.529 3.894a4.21 4.21 0 0 1-4.86-3.738C2.597 2.345 4.271.272 6.556.027c.04-.004.08-.018.12-.027h.686Zm-.35.938A3.283 3.283 0 0 0 3.746 4.22 3.284 3.284 0 0 0 7.018 7.5c1.81 0 3.281-1.478 3.277-3.291A3.283 3.283 0 0 0 7.015.938h-.001Z"/></symbol><symbol viewBox="0 0 21 20" id="symbol-whatsapp" xmlns="http://www.w3.org/2000/svg"><path fill-rule="evenodd" clip-rule="evenodd" d="M2.381 10a8.095 8.095 0 1 1 3.77 6.844.952.952 0 0 0-.783-.108l-2.742.818 1.033-2.416a.952.952 0 0 0-.067-.876A8.054 8.054 0 0 1 2.381 10Zm8.095-10c-5.523 0-10 4.477-10 10 0 1.75.45 3.398 1.243 4.831L.077 18.673a.952.952 0 0 0 1.148 1.287l4.285-1.279A9.959 9.959 0 0 0 10.476 20c5.523 0 10-4.477 10-10S16 0 10.476 0Zm2.183 12.078-1.251.882a8.893 8.893 0 0 1-1.884-1.45 9.715 9.715 0 0 1-1.547-2.014l.796-.675a.952.952 0 0 0 .224-1.173L7.984 5.743a.952.952 0 0 0-1.467-.27l-.3.262c-.723.63-1.15 1.667-.797 2.716.368 1.088 1.151 2.8 2.757 4.406 1.727 1.727 3.481 2.407 4.507 2.671.827.213 1.61-.072 2.16-.521l.564-.46a.953.953 0 0 0-.114-1.556l-1.599-.952a.953.953 0 0 0-1.036.04Z"/></symbol></svg>