<svg viewBox="0 0 19 20" xmlns="http://www.w3.org/2000/svg">
    <path d="M9.49483 4.84375C12.1593 4.84375 14.3586 7.16518 14.3586 9.97768C14.3586 12.8348 12.1593 15.1116 9.49483 15.1116C6.78806 15.1116 4.63111 12.8348 4.63111 9.97768C4.63111 7.16518 6.78806 4.84375 9.49483 4.84375ZM9.49483 13.3259C11.2289 13.3259 12.6245 11.8527 12.6245 9.97768C12.6245 8.14732 11.2289 6.67411 9.49483 6.67411C7.71852 6.67411 6.32284 8.14732 6.32284 9.97768C6.32284 11.8527 7.76081 13.3259 9.49483 13.3259ZM15.6696 4.66518C15.6696 5.33482 15.1621 5.87054 14.5277 5.87054C13.8933 5.87054 13.3858 5.33482 13.3858 4.66518C13.3858 3.99554 13.8933 3.45982 14.5277 3.45982C15.1621 3.45982 15.6696 3.99554 15.6696 4.66518ZM18.8839 5.87054C18.9685 7.52232 18.9685 12.4777 18.8839 14.1295C18.7993 15.7366 18.461 17.1205 17.3614 18.3259C16.2617 19.4866 14.9084 19.8438 13.3858 19.933C11.821 20.0223 7.12641 20.0223 5.56156 19.933C4.039 19.8438 2.72791 19.4866 1.586 18.3259C0.486372 17.1205 0.148026 15.7366 0.0634399 14.1295C-0.0211466 12.4777 -0.0211466 7.52232 0.0634399 5.87054C0.148026 4.26339 0.486372 2.83482 1.586 1.67411C2.72791 0.513393 4.039 0.15625 5.56156 0.0669643C7.12641 -0.0223214 11.821 -0.0223214 13.3858 0.0669643C14.9084 0.15625 16.2617 0.513393 17.3614 1.67411C18.461 2.83482 18.7993 4.26339 18.8839 5.87054ZM16.8539 15.8705C17.3614 14.5759 17.2345 11.4509 17.2345 9.97768C17.2345 8.54911 17.3614 5.42411 16.8539 4.08482C16.5155 3.23661 15.8811 2.52232 15.0775 2.20982C13.8087 1.67411 10.8482 1.80804 9.49483 1.80804C8.09915 1.80804 5.13863 1.67411 3.91212 2.20982C3.06626 2.56696 2.43186 3.23661 2.09352 4.08482C1.586 5.42411 1.71288 8.54911 1.71288 9.97768C1.71288 11.4509 1.586 14.5759 2.09352 15.8705C2.43186 16.7634 3.06626 17.433 3.91212 17.7902C5.13863 18.3259 8.09915 18.192 9.49483 18.192C10.8482 18.192 13.8087 18.3259 15.0775 17.7902C15.8811 17.433 16.5578 16.7634 16.8539 15.8705Z" />
</svg>
