<svg viewBox="0 0 15 13" xmlns="http://www.w3.org/2000/svg">
	<path d="M9.94336 0C11.0735 1.688e-05 12.1579 0.449972 12.957 1.24902C13.7557 2.04798 14.205 3.13182 14.2051 4.26172C14.2049 6.80643 12.4289 8.94106 10.6533 10.4395C9.76577 11.1884 8.87852 11.7789 8.21289 12.1816C7.87998 12.3831 7.60123 12.5375 7.40723 12.6416C7.38827 12.6518 7.37042 12.6608 7.35645 12.668C7.34129 12.6757 7.33212 12.6809 7.32324 12.6855C7.18464 12.7586 7.01842 12.7587 6.87988 12.6855C6.86768 12.6791 6.82355 12.6559 6.79688 12.6416C6.60245 12.5373 6.32536 12.3826 5.99316 12.1816H5.99219C5.32661 11.7789 4.43935 11.1885 3.55176 10.4395C1.8316 8.98785 0.110731 6.9393 0.00488281 4.49902L0 4.26172L0.00976562 3.9541C0.0591509 3.23798 0.289877 2.54377 0.681641 1.93848C1.12929 1.24704 1.7689 0.700754 2.52148 0.366211C3.27388 0.0318961 4.10774 -0.0772648 4.9209 0.0537109C5.63266 0.168517 6.30265 0.463141 6.86719 0.90625L7.10254 1.10547L7.25098 0.976562C8.0059 0.350477 8.9565 0.00339803 9.94141 0H9.94336ZM9.94434 0.949219C9.1294 0.952116 8.34403 1.25767 7.74121 1.80664V1.80762C7.379 2.13697 6.82559 2.13631 6.46387 1.80762C5.99078 1.37729 5.40196 1.09313 4.77051 0.991211C4.13922 0.88947 3.49086 0.973587 2.90625 1.2334C2.32203 1.49317 1.826 1.91746 1.47852 2.4541C1.13094 2.99112 0.946927 3.6183 0.949219 4.25781V4.26172C0.949334 6.36662 2.43715 8.25833 4.16309 9.71484C5.00243 10.4232 5.84766 10.9839 6.48438 11.3691C6.72528 11.5148 6.93526 11.6339 7.10156 11.7256C7.26853 11.6337 7.48044 11.5151 7.72168 11.3691C8.35833 10.9839 9.20288 10.4229 10.042 9.71484C11.7679 8.25834 13.2557 6.36665 13.2559 4.26172C13.2558 3.38351 12.9063 2.54108 12.2852 1.91992C11.6641 1.29902 10.8222 0.949485 9.94434 0.949219Z" />
</svg>
