<svg viewBox="0 0 15 15" xmlns="http://www.w3.org/2000/svg">
	<path d="M1.03223 0C1.92427 0 2.68879 0.60897 2.90332 1.45703H12.2969C13.6154 1.45708 14.5468 2.74905 14.1299 4L12.915 7.64355C12.652 8.43217 11.9136 8.96387 11.082 8.96387H3.98828L4.04492 9.35742C4.11421 9.84136 4.5287 10.2012 5.01758 10.2012H11.4043C12.4713 10.2013 13.3359 11.0658 13.3359 12.1328C13.3359 13.1997 12.4712 14.0643 11.4043 14.0645C10.3374 14.0645 9.47266 13.1998 9.47266 12.1328C9.47266 11.7738 9.57157 11.4384 9.74219 11.1504H7.23633C7.40705 11.4385 7.50684 11.7736 7.50684 12.1328C7.50683 13.1997 6.64211 14.0644 5.5752 14.0645C4.50825 14.0645 3.64356 13.1998 3.64355 12.1328C3.64355 11.6672 3.80768 11.2398 4.08203 10.9062C3.56791 10.621 3.19267 10.1084 3.10449 9.49121L2.97168 8.55664L2.03418 1.99902L2.00488 1.79297C1.93573 1.30889 1.52123 0.949219 1.03223 0.949219H0.474609C0.212464 0.949219 0 0.736755 0 0.474609C0 0.212464 0.212464 0 0.474609 0H1.03223ZM5.5752 11.1504C5.03251 11.1504 4.59277 11.5901 4.59277 12.1328C4.59278 12.6754 5.03249 13.1152 5.5752 13.1152C6.11785 13.1152 6.55761 12.6754 6.55762 12.1328C6.55762 11.5901 6.11784 11.1505 5.5752 11.1504ZM11.4043 11.1504C10.8617 11.1504 10.4219 11.59 10.4219 12.1328C10.4219 12.6754 10.8616 13.1152 11.4043 13.1152C11.947 13.1151 12.3867 12.6754 12.3867 12.1328C12.3867 11.5901 11.947 11.1505 11.4043 11.1504ZM3.85254 8.01465H11.082C11.505 8.01465 11.8809 7.74402 12.0146 7.34277L13.2285 3.7002H13.2295C13.4416 3.06399 12.9676 2.4063 12.2969 2.40625H3.05176L3.85254 8.01465Z" />
</svg>
