<svg viewBox="0 0 41 30" xmlns="http://www.w3.org/2000/svg">
    <path d="M40.6319 29.9973H22.777L22.7744 15.8298C23.0678 10.982 23.4769 4.88633 27.9901 1.9993C30.4964 0.396259 33.597 0.133802 36.5072 0V7.93546C35.6452 8.00236 34.6803 8.05383 33.8672 8.35231C30.9672 9.41757 30.8926 13.6735 30.7923 16.2698H40.6319V29.9973Z" />
    <path d="M0 29.9976V15.8301C0.295909 11.0107 0.710182 5.0771 5.08707 2.11288C7.58557 0.419773 10.7891 0.149597 13.7302 0.00292969V7.93839C11.5662 8.02845 9.90653 8.42728 9.00851 10.5578C8.38324 12.0451 8.12335 14.4895 8.1285 16.108C8.1285 16.1749 8.15681 16.2701 8.21599 16.2701H17.8575V30.0002H0V29.9976Z" />
</svg>
