<svg viewBox="0 0 18 17" xmlns="http://www.w3.org/2000/svg">
    <path d="M3.03646 2.21606H15.5714C16.8447 2.21606 17.7437 3.40485 17.3411 4.55602L15.7865 9.0005C15.5327 9.72637 14.8198 10.2161 14.0169 10.2161H4.23564M3.03646 2.21606L2.99878 1.96465C2.86749 1.08882 2.08044 0.438282 1.15213 0.438282H0.438232M3.03646 2.21606L4.23564 10.2161M4.23564 10.2161L4.40658 11.3563C4.53786 12.2321 5.32491 12.8827 6.25323 12.8827H14.4287M14.4287 12.8827C13.3985 12.8827 12.5633 13.6786 12.5633 14.6605C12.5633 15.6424 13.3985 16.4383 14.4287 16.4383C15.459 16.4383 16.2941 15.6424 16.2941 14.6605C16.2941 13.6786 15.459 12.8827 14.4287 12.8827ZM8.83252 14.6605C8.83252 15.6424 7.99738 16.4383 6.96713 16.4383C5.93689 16.4383 5.10173 15.6424 5.10173 14.6605C5.10173 13.6786 5.93689 12.8827 6.96713 12.8827C7.99738 12.8827 8.83252 13.6786 8.83252 14.6605Z" />
</svg>
