<svg viewBox="0 0 23 23" xmlns="http://www.w3.org/2000/svg">
    <path d="M3.91219 2.99419H19.6146C21.2096 2.99419 22.3358 4.55678 21.8315 6.06992L19.8841 11.9119C19.5661 12.866 18.6731 13.5097 17.6673 13.5097H5.41439M3.91219 2.99419L3.86499 2.66373C3.70052 1.51252 2.7146 0.657425 1.5517 0.657425H0.65741M3.91219 2.99419L5.41439 13.5097M5.41439 13.5097L5.62852 15.0085C5.79298 16.1597 6.77891 17.0148 7.94181 17.0148H18.1832M18.1832 17.0148C16.8926 17.0148 15.8464 18.061 15.8464 19.3516C15.8464 20.6422 16.8926 21.6883 18.1832 21.6883C19.4738 21.6883 20.5199 20.6422 20.5199 19.3516C20.5199 18.061 19.4738 17.0148 18.1832 17.0148ZM11.1729 19.3516C11.1729 20.6422 10.1267 21.6883 8.8361 21.6883C7.54554 21.6883 6.49933 20.6422 6.49933 19.3516C6.49933 18.061 7.54554 17.0148 8.8361 17.0148C10.1267 17.0148 11.1729 18.061 11.1729 19.3516Z" />
</svg>
