<svg viewBox="0 0 16 16" xmlns="http://www.w3.org/2000/svg">
    <path fill-rule="evenodd" clip-rule="evenodd" d="M6.73211 12.2288C3.58612 12.2288 1.03583 9.72306 1.03583 6.62708C1.03583 3.53111 3.58612 1.02034 6.73211 1.02034C9.8781 1.02034 12.4289 3.53111 12.4289 6.62708C12.4289 9.72306 9.8781 12.2288 6.73211 12.2288ZM15.849 15.1298L11.7182 11.0635C12.7995 9.88811 13.4642 8.33762 13.4642 6.62708C13.4642 2.96593 10.4503 0 6.73211 0C3.01394 0 0 2.96593 0 6.62708C0 10.2832 3.01394 13.2492 6.73211 13.2492C8.33862 13.2492 9.81209 12.694 10.9695 11.7687L15.1168 15.85C15.3193 16.05 15.6469 16.05 15.849 15.85C16.0515 15.6549 16.0515 15.3298 15.849 15.1298Z" />
</svg>
