<svg viewBox="0 0 13 11" xmlns="http://www.w3.org/2000/svg">
	<path d="M4.96875 0.141602C5.16648 -0.0509901 5.48307 -0.046289 5.67578 0.151367C5.86832 0.349101 5.86463 0.665701 5.66699 0.858398L1.72949 4.69727H12.0625C12.3386 4.69727 12.5624 4.92118 12.5625 5.19727C12.5625 5.47337 12.3386 5.69727 12.0625 5.69727H1.72852L5.66699 9.53711C5.86443 9.72991 5.86847 10.0465 5.67578 10.2441C5.48302 10.4416 5.1664 10.4455 4.96875 10.2529L0.151367 5.55566C0.0548702 5.46158 2.4716e-05 5.33204 0 5.19727C3.05337e-05 5.06253 0.0549153 4.93392 0.151367 4.83984L4.96875 0.141602Z" />
</svg>
